<mxfile host="Electron" modified="2024-06-17T19:54:33.544Z" agent="Mozilla/5.0 (Windows NT 10.0; Win64; x64) AppleWebKit/537.36 (KHTML, like Gecko) draw.io/23.1.5 Chrome/120.0.6099.109 Electron/28.1.0 Safari/537.36" etag="7aOUR-0LBtwsrCVu8FGN" version="23.1.5" type="device">
  <diagram name="Page-1" id="31bVrb871ln1G7emrZOh">
    <mxGraphModel dx="401" dy="658" grid="1" gridSize="10" guides="1" tooltips="1" connect="1" arrows="1" fold="1" page="1" pageScale="1" pageWidth="1654" pageHeight="1169" math="0" shadow="0">
      <root>
        <mxCell id="0" />
        <mxCell id="1" parent="0" />
        <mxCell id="p60vrISp5pK5Xkwiz-xx-1" value="start" style="ellipse;whiteSpace=wrap;html=1;aspect=fixed;" parent="1" vertex="1">
          <mxGeometry x="140" y="70" width="80" height="80" as="geometry" />
        </mxCell>
        <mxCell id="p60vrISp5pK5Xkwiz-xx-2" value="timeout = 2000 // ms&lt;br&gt;gps_locked = 0" style="rounded=1;whiteSpace=wrap;html=1;" parent="1" vertex="1">
          <mxGeometry x="130" y="200" width="120" height="60" as="geometry" />
        </mxCell>
        <mxCell id="p60vrISp5pK5Xkwiz-xx-3" value="try decoding GPS data" style="rounded=1;whiteSpace=wrap;html=1;" parent="1" vertex="1">
          <mxGeometry x="130" y="460" width="120" height="60" as="geometry" />
        </mxCell>
        <mxCell id="p60vrISp5pK5Xkwiz-xx-4" value="is decoding successful?" style="rhombus;whiteSpace=wrap;html=1;" parent="1" vertex="1">
          <mxGeometry x="130" y="560" width="120" height="110" as="geometry" />
        </mxCell>
        <mxCell id="p60vrISp5pK5Xkwiz-xx-5" value="gps_locked = 1&lt;br&gt;time = 0" style="rounded=1;whiteSpace=wrap;html=1;" parent="1" vertex="1">
          <mxGeometry x="130" y="715" width="120" height="60" as="geometry" />
        </mxCell>
        <mxCell id="p60vrISp5pK5Xkwiz-xx-6" value="time++" style="rounded=1;whiteSpace=wrap;html=1;" parent="1" vertex="1">
          <mxGeometry x="350" y="545" width="120" height="60" as="geometry" />
        </mxCell>
        <mxCell id="p60vrISp5pK5Xkwiz-xx-8" value="time&amp;nbsp; &amp;gt; timeout ?" style="rhombus;whiteSpace=wrap;html=1;" parent="1" vertex="1">
          <mxGeometry x="130" y="300" width="120" height="110" as="geometry" />
        </mxCell>
      </root>
    </mxGraphModel>
  </diagram>
</mxfile>
